# xmcd
#
# Track frame offsets:
#	150
#	18933
#	30529
#	40290
#	53843
#	65612
#	78159
#	90856
#	104569
#	120516
#	131263
#	147566
#	162250
#	178319
#	193776
#	211385
#	225499
#	239953
#	259365
#	271699
#	290020
#	304433
#	318304
#	334284
#	342505
#
# Disc length: 4688 seconds
#
# Revision: 0
# Processed by: cddbd v1.5.2PL0 Copyright (c) Steve Scherf et al.
# Submitted via: EasyCDDAExtractor 16.0.6.1
#
DISCID=7a124e19
DTITLE=Tapio Heinonen - en kadu mitään - kaikki levytykset cd 6
DYEAR=1900
DGENRE=
TTITLE0=Palanen maata
TTITLE1=Odotan hyräillen
TTITLE2=Yöllä on tuhat silmää
TTITLE3=Solenzara
TTITLE4=Yön sävel
TTITLE5=Katson veden pintaa
TTITLE6=En kadu mitään
TTITLE7=Marie blanche
TTITLE8=Syksy sun tuo
TTITLE9=Sata kelloa
TTITLE10=Siinä kaikki - tulet kai
TTITLE11=Lexin muistolle
TTITLE12=Lumikenttien kutsu
TTITLE13=Kuusamo
TTITLE14=Ihminen on tehnyt sen
TTITLE15=Sulle jokainen päivä tuon vuokon
TTITLE16=Lapsuuteni luo
TTITLE17=Kuin lokki
TTITLE18=Laulun kuulen
TTITLE19=Sininen uni
TTITLE20=Vain kaksi bauhaa
TTITLE21=Syyssunnuntai
TTITLE22=Sylvian joululaulu
TTITLE23=Heinillä härkien kaukalon
TTITLE24=Joulupukki joulupukki
EXTD=
EXTT0=
EXTT1=
EXTT2=
EXTT3=
EXTT4=
EXTT5=
EXTT6=
EXTT7=
EXTT8=
EXTT9=
EXTT10=
EXTT11=
EXTT12=
EXTT13=
EXTT14=
EXTT15=
EXTT16=
EXTT17=
EXTT18=
EXTT19=
EXTT20=
EXTT21=
EXTT22=
EXTT23=
EXTT24=
PLAYORDER=
